<?xml version="1.0" encoding="utf-8"?>
<!-- Generator: Adobe Illustrator 17.0.0, SVG Export Plug-In . SVG Version: 6.00 Build 0)  -->
<!DOCTYPE svg PUBLIC "-//W3C//DTD SVG 1.1//EN" "http://www.w3.org/Graphics/SVG/1.1/DTD/svg11.dtd">
<svg version="1.1" id="Layer_1" xmlns="http://www.w3.org/2000/svg" xmlns:xlink="http://www.w3.org/1999/xlink" x="0px" y="0px"
	 width="402.579px" height="101.395px" viewBox="0 0 402.579 101.395" enable-background="new 0 0 402.579 101.395"
	 xml:space="preserve">
<g>
	<path fill-rule="evenodd" clip-rule="evenodd" fill="#ED1B2F" d="M61.208,0.546c25.443,4.074,40.144,29.836,32.826,57.529
		c-7.317,27.693-33.886,46.848-59.329,42.774C9.262,96.775-5.438,71.013,1.879,43.32C9.196,15.627,35.764-3.528,61.208,0.546"/>
	<path fill-rule="evenodd" clip-rule="evenodd" fill="#FFFFFF" d="M47.167,36.879h-6.151V26.354h6.184V11.178h12.224v15.176h18.881
		v10.525H59.424v22.538c0,2.434-0.002,7.873,0.991,9.953c0.572,1.191,1.424,2.109,2.643,2.688c1.571,0.756,3.519,0.955,5.251,0.955
		c3.728,0,6.795-1.375,9.988-2.943l0.008,1.27v10.848l-1.476,0.355c-3.608,0.867-7.322,1.41-11.041,1.41
		c-13.018,0-18.621-7.727-18.621-19.865V36.879z M37.473,82.933H25.197V26.354h12.275V82.933z"/>
	<path fill-rule="evenodd" clip-rule="evenodd" fill="#FFFFFF" d="M31.335,7.919c4.153,0,7.521,3.259,7.521,7.276
		c0,4.019-3.368,7.277-7.521,7.277s-7.521-3.259-7.521-7.277C23.814,11.178,27.182,7.919,31.335,7.919"/>
	<path fill-rule="evenodd" clip-rule="evenodd" fill="#FFFFFF" d="M185.963,47.285h27.358c-0.683-7.598-4.318-11.937-12.699-11.937
		c-3.893,0-7.513,0.982-10.377,3.667C187.837,41.271,186.549,44.146,185.963,47.285 M256.917,84.144
		c-7.82,0-15.247-2.027-20.743-7.738c-5.649-5.867-7.413-13.812-7.413-21.658c0-7.959,1.941-15.728,7.62-21.672
		c5.495-5.732,12.689-8.029,20.586-8.029c6.194,0,12.199,1.854,17.696,4.553l1.069,0.525v12.223l-0.027,3.02
		c-4.171-5.285-11.233-9.412-18.935-9.412c-4.456,0-8.414,1.265-11.336,4.69c-3.273,3.841-4.123,9.248-4.123,14.103
		c0,4.789,0.813,10.18,4.094,13.943c2.929,3.365,6.963,4.561,11.365,4.561c7.678,0,14.678-4.334,18.947-9.139l0.015,2.826v12.084
		l-1.118,0.512C269.198,82.013,262.954,84.144,256.917,84.144 M185.742,57.298c0.268,4.217,1.491,8.332,4.642,11.387
		c3.56,3.455,8.32,4.566,13.2,4.566c6.386,0,12.227-2.443,17.398-5.973l0.499-0.34h2.922v12.117l-1.224,0.473
		c-6.047,2.354-13.189,4.615-19.741,4.615c-8.184,0-16.225-1.91-22.22-7.67c-5.973-5.732-7.987-13.525-7.987-21.504
		c0-8.018,1.969-15.795,7.601-21.842c5.384-5.798,12.38-8.256,20.28-8.256c6.83,0,13.239,1.839,17.992,6.859
		c4.894,5.21,6.404,12.238,6.404,19.125v6.441H185.742z M169.508,82.933h-12.274V26.354h12.274V82.933z M125.389,64.427
		l15.781-38.073h13.008l-24.58,56.579h-9.109L96.063,26.354h13.322L125.389,64.427z"/>
	<path fill-rule="evenodd" clip-rule="evenodd" fill="#FFFFFF" d="M163.371,7.919c4.153,0,7.521,3.259,7.521,7.276
		c0,4.019-3.367,7.277-7.521,7.277c-4.153,0-7.521-3.259-7.521-7.277C155.85,11.178,159.218,7.919,163.371,7.919"/>
</g>
<g>
	<path fill="#FFFFFF" d="M296.361,32.224c-0.208-0.417-0.378-1.159-0.508-2.227c-1.68,1.745-3.685,2.617-6.016,2.617
		c-2.083,0-3.792-0.589-5.127-1.768c-1.335-1.178-2.002-2.672-2.002-4.482c0-2.2,0.837-3.909,2.51-5.127
		c1.673-1.217,4.026-1.826,7.061-1.826h3.516v-1.66c0-1.263-0.378-2.269-1.133-3.018c-0.755-0.749-1.868-1.123-3.34-1.123
		c-1.289,0-2.37,0.326-3.242,0.977c-0.872,0.651-1.309,1.439-1.309,2.363h-3.633c0-1.055,0.374-2.073,1.123-3.057
		c0.749-0.983,1.765-1.761,3.047-2.334c1.282-0.573,2.692-0.859,4.229-0.859c2.435,0,4.343,0.609,5.723,1.826
		c1.38,1.218,2.097,2.894,2.148,5.029v9.727c0,1.94,0.247,3.483,0.742,4.629v0.313H296.361z M290.364,29.47
		c1.133,0,2.207-0.293,3.223-0.879s1.751-1.348,2.207-2.285V21.97h-2.832c-4.427,0-6.641,1.296-6.641,3.887
		c0,1.133,0.378,2.019,1.133,2.656C288.209,29.151,289.18,29.47,290.364,29.47z"/>
	<path fill="#FFFFFF" d="M304.193,21.481c0-3.242,0.769-5.85,2.305-7.822s3.548-2.959,6.035-2.959c2.474,0,4.434,0.847,5.879,2.539
		V2.224h3.613v30h-3.32l-0.176-2.266c-1.445,1.771-3.457,2.656-6.035,2.656c-2.448,0-4.443-1.002-5.986-3.008
		c-1.543-2.005-2.314-4.622-2.314-7.852V21.481z M307.806,21.892c0,2.396,0.495,4.271,1.484,5.625
		c0.989,1.354,2.356,2.031,4.102,2.031c2.292,0,3.965-1.028,5.02-3.086v-9.707c-1.081-1.992-2.741-2.988-4.98-2.988
		c-1.771,0-3.151,0.684-4.141,2.051S307.806,19.209,307.806,21.892z"/>
	<path fill="#FFFFFF" d="M331.029,11.091l0.098,2.344c1.55-1.823,3.64-2.734,6.27-2.734c2.956,0,4.968,1.133,6.035,3.398
		c0.703-1.016,1.618-1.836,2.744-2.461s2.458-0.938,3.994-0.938c4.636,0,6.992,2.455,7.07,7.363v14.16h-3.613V18.278
		c0-1.51-0.345-2.64-1.035-3.389c-0.69-0.749-1.849-1.123-3.477-1.123c-1.341,0-2.454,0.4-3.34,1.201s-1.399,1.878-1.543,3.232
		v14.023h-3.633V18.376c0-3.073-1.504-4.609-4.512-4.609c-2.37,0-3.991,1.009-4.863,3.027v15.43h-3.613V11.091H331.029z"/>
	<path fill="#FFFFFF" d="M362.708,5.485c0-0.586,0.179-1.081,0.537-1.484c0.358-0.403,0.889-0.605,1.592-0.605
		s1.237,0.202,1.602,0.605c0.364,0.404,0.547,0.898,0.547,1.484s-0.183,1.074-0.547,1.465s-0.898,0.586-1.602,0.586
		s-1.233-0.195-1.592-0.586S362.708,6.071,362.708,5.485z M366.614,32.224h-3.613V11.091h3.613V32.224z"/>
	<path fill="#FFFFFF" d="M375.814,11.091l0.117,2.656c1.614-2.031,3.724-3.047,6.328-3.047c4.466,0,6.719,2.52,6.758,7.559v13.965
		h-3.613V18.239c-0.013-1.523-0.361-2.649-1.045-3.379c-0.684-0.729-1.748-1.094-3.193-1.094c-1.172,0-2.2,0.313-3.086,0.938
		s-1.575,1.445-2.07,2.461v15.059h-3.613V11.091H375.814z"/>
</g>
<g>
</g>
<g>
</g>
<g>
</g>
<g>
</g>
<g>
</g>
<g>
</g>
</svg>
